<svg width="100" height="22" viewBox="0 0 100 22" fill="none" xmlns="http://www.w3.org/2000/svg">
<path d="M0.736 17V0.199999H7.024C8.448 0.199999 9.672 0.431999 10.696 0.896C11.72 1.344 12.504 2 13.048 2.864C13.608 3.712 13.888 4.744 13.888 5.96C13.888 7.144 13.608 8.168 13.048 9.032C12.504 9.88 11.72 10.536 10.696 11C9.672 11.464 8.448 11.696 7.024 11.696H1.72L2.512 10.856V17H0.736ZM2.512 11L1.72 10.136H6.976C8.656 10.136 9.928 9.776 10.792 9.056C11.672 8.32 12.112 7.288 12.112 5.96C12.112 4.616 11.672 3.576 10.792 2.84C9.928 2.104 8.656 1.736 6.976 1.736H1.72L2.512 0.896V11ZM17.0635 17V4.4H18.6955V7.832L18.5275 7.232C18.8795 6.272 19.4715 5.544 20.3035 5.048C21.1355 4.536 22.1675 4.28 23.3995 4.28V5.936C23.3355 5.936 23.2715 5.936 23.2075 5.936C23.1435 5.92 23.0795 5.912 23.0155 5.912C21.6875 5.912 20.6475 6.32 19.8955 7.136C19.1435 7.936 18.7675 9.08 18.7675 10.568V17H17.0635ZM31.7436 17.12C30.4316 17.12 29.2796 16.848 28.2876 16.304C27.2956 15.744 26.5196 14.984 25.9596 14.024C25.3996 13.048 25.1196 11.936 25.1196 10.688C25.1196 9.44 25.3836 8.336 25.9116 7.376C26.4556 6.416 27.1916 5.664 28.1196 5.12C29.0636 4.56 30.1196 4.28 31.2876 4.28C32.4716 4.28 33.5196 4.552 34.4316 5.096C35.3596 5.624 36.0876 6.376 36.6156 7.352C37.1436 8.312 37.4076 9.424 37.4076 10.688C37.4076 10.768 37.3996 10.856 37.3836 10.952C37.3836 11.032 37.3836 11.12 37.3836 11.216H26.4156V9.944H36.4716L35.7996 10.448C35.7996 9.536 35.5996 8.728 35.1996 8.024C34.8156 7.304 34.2876 6.744 33.6156 6.344C32.9436 5.944 32.1676 5.744 31.2876 5.744C30.4236 5.744 29.6476 5.944 28.9596 6.344C28.2716 6.744 27.7356 7.304 27.3516 8.024C26.9676 8.744 26.7756 9.568 26.7756 10.496V10.76C26.7756 11.72 26.9836 12.568 27.3996 13.304C27.8316 14.024 28.4236 14.592 29.1756 15.008C29.9436 15.408 30.8156 15.608 31.7916 15.608C32.5596 15.608 33.2716 15.472 33.9276 15.2C34.5996 14.928 35.1756 14.512 35.6556 13.952L36.6156 15.056C36.0556 15.728 35.3516 16.24 34.5036 16.592C33.6716 16.944 32.7516 17.12 31.7436 17.12ZM47.38 17.12C46.292 17.12 45.308 16.872 44.428 16.376C43.548 15.864 42.844 15.136 42.316 14.192C41.804 13.232 41.548 12.064 41.548 10.688C41.548 9.312 41.804 8.152 42.316 7.208C42.828 6.248 43.524 5.52 44.404 5.024C45.284 4.528 46.276 4.28 47.38 4.28C48.58 4.28 49.652 4.552 50.596 5.096C51.556 5.624 52.308 6.376 52.852 7.352C53.396 8.312 53.668 9.424 53.668 10.688C53.668 11.968 53.396 13.088 52.852 14.048C52.308 15.008 51.556 15.76 50.596 16.304C49.652 16.848 48.58 17.12 47.38 17.12ZM40.876 21.656V4.4H42.508V8.192L42.34 10.712L42.58 13.256V21.656H40.876ZM47.26 15.608C48.156 15.608 48.956 15.408 49.66 15.008C50.364 14.592 50.924 14.016 51.34 13.28C51.756 12.528 51.964 11.664 51.964 10.688C51.964 9.712 51.756 8.856 51.34 8.12C50.924 7.384 50.364 6.808 49.66 6.392C48.956 5.976 48.156 5.768 47.26 5.768C46.364 5.768 45.556 5.976 44.836 6.392C44.132 6.808 43.572 7.384 43.156 8.12C42.756 8.856 42.556 9.712 42.556 10.688C42.556 11.664 42.756 12.528 43.156 13.28C43.572 14.016 44.132 14.592 44.836 15.008C45.556 15.408 46.364 15.608 47.26 15.608Z" fill="white"/>
<path d="M70.5509 17.144C68.4069 17.144 66.7189 16.528 65.4869 15.296C64.2549 14.064 63.6389 12.24 63.6389 9.824V0.199999H65.4149V9.752C65.4149 11.736 65.8629 13.2 66.7589 14.144C67.6549 15.088 68.9189 15.56 70.5509 15.56C72.1989 15.56 73.4709 15.088 74.3669 14.144C75.2629 13.2 75.7109 11.736 75.7109 9.752V0.199999H77.4389V9.824C77.4389 12.24 76.8229 14.064 75.5909 15.296C74.3749 16.528 72.6949 17.144 70.5509 17.144ZM88.9347 17.12C87.8467 17.12 86.8627 16.872 85.9827 16.376C85.1027 15.864 84.3987 15.136 83.8707 14.192C83.3587 13.232 83.1027 12.064 83.1027 10.688C83.1027 9.312 83.3587 8.152 83.8707 7.208C84.3827 6.248 85.0787 5.52 85.9587 5.024C86.8387 4.528 87.8307 4.28 88.9347 4.28C90.1347 4.28 91.2067 4.552 92.1507 5.096C93.1107 5.624 93.8627 6.376 94.4067 7.352C94.9507 8.312 95.2227 9.424 95.2227 10.688C95.2227 11.968 94.9507 13.088 94.4067 14.048C93.8627 15.008 93.1107 15.76 92.1507 16.304C91.2067 16.848 90.1347 17.12 88.9347 17.12ZM82.4307 21.656V4.4H84.0627V8.192L83.8947 10.712L84.1347 13.256V21.656H82.4307ZM88.8147 15.608C89.7107 15.608 90.5107 15.408 91.2147 15.008C91.9187 14.592 92.4787 14.016 92.8947 13.28C93.3107 12.528 93.5187 11.664 93.5187 10.688C93.5187 9.712 93.3107 8.856 92.8947 8.12C92.4787 7.384 91.9187 6.808 91.2147 6.392C90.5107 5.976 89.7107 5.768 88.8147 5.768C87.9187 5.768 87.1107 5.976 86.3907 6.392C85.6867 6.808 85.1267 7.384 84.7107 8.12C84.3107 8.856 84.1107 9.712 84.1107 10.688C84.1107 11.664 84.3107 12.528 84.7107 13.28C85.1267 14.016 85.6867 14.592 86.3907 15.008C87.1107 15.408 87.9187 15.608 88.8147 15.608ZM98.5128 17.12C98.1608 17.12 97.8568 16.992 97.6008 16.736C97.3608 16.48 97.2408 16.168 97.2408 15.8C97.2408 15.416 97.3608 15.104 97.6008 14.864C97.8568 14.624 98.1608 14.504 98.5128 14.504C98.8648 14.504 99.1608 14.624 99.4008 14.864C99.6568 15.104 99.7848 15.416 99.7848 15.8C99.7848 16.168 99.6568 16.48 99.4008 16.736C99.1608 16.992 98.8648 17.12 98.5128 17.12Z" fill="#F2D059"/>
</svg>
